<?xml version="1.0" standalone="no"?>
<!DOCTYPE svg PUBLIC "-//W3C//DTD SVG 20010904//EN"
 "http://www.w3.org/TR/2001/REC-SVG-20010904/DTD/svg10.dtd">
<svg version="1.0" xmlns="http://www.w3.org/2000/svg"
 width="374.000000pt" height="55.000000pt" viewBox="0 0 374.000000 55.000000"
 preserveAspectRatio="xMidYMid meet">
<g transform="translate(0.000000,55.000000) scale(0.100000,-0.100000)"
fill="#000000" stroke="none">
<path d="M618 493 c-2 -5 -1 -107 2 -228 l6 -220 2 228 c2 204 0 244 -10 220z"/>
<path d="M486 478 c-9 -27 -25 -102 -23 -104 1 -1 11 -4 22 -6 16 -2 21 5 28
44 5 27 7 55 3 63 -7 18 -25 20 -30 3z"/>
<path d="M451 432 c-13 -48 -11 -94 5 -88 6 2 17 0 25 -5 10 -6 7 -9 -13 -9
-17 0 -28 -6 -32 -17 -10 -38 -20 -88 -18 -96 1 -4 -5 -15 -13 -24 -9 -8 -14
-22 -11 -30 3 -8 1 -11 -4 -8 -6 3 -10 0 -10 -7 0 -26 -58 -85 -82 -83 -15 1
-22 7 -20 19 3 19 -9 21 -26 4 -6 -6 -15 -9 -19 -5 -4 4 -1 13 5 19 15 15 16
48 1 48 -5 0 -27 -11 -47 -25 -20 -14 -45 -25 -54 -25 -41 0 -7 132 47 186 30
30 45 24 45 -17 0 -16 4 -29 9 -29 16 0 22 36 12 64 -33 86 -161 -60 -161
-184 0 -64 33 -76 93 -36 l36 25 -6 -30 c-6 -31 4 -37 26 -16 11 9 14 9 18 -1
3 -6 20 -12 40 -12 35 0 64 22 106 80 19 25 19 25 2 -4 -10 -16 -12 -25 -6
-22 39 24 110 223 88 245 -6 6 -17 11 -24 11 -16 0 -16 13 -2 63 6 22 8 41 5
44 -2 3 -9 -13 -15 -35z m-2 -216 c-28 -77 -32 -67 -6 15 12 37 23 61 25 54 2
-6 -7 -38 -19 -69z"/>
<path d="M764 460 c-55 -22 -72 -103 -30 -145 13 -13 43 -29 67 -35 67 -18 93
-33 103 -63 12 -33 -11 -62 -55 -71 -35 -7 -96 16 -105 39 -7 17 -39 20 -49 5
-4 -6 9 -26 27 -44 82 -82 228 -46 228 56 0 69 -31 98 -119 113 -45 7 -81 34
-81 60 0 28 38 55 77 55 28 0 45 -8 70 -32 25 -25 36 -29 45 -20 16 16 -8 59
-44 78 -30 15 -101 18 -134 4z"/>
<path d="M2512 288 c3 -155 5 -183 18 -183 11 0 16 13 18 47 5 75 22 77 73 8
24 -32 50 -59 57 -60 30 -1 21 33 -24 90 l-48 61 50 44 c44 39 47 45 34 59
-13 13 -21 9 -73 -39 -33 -30 -61 -55 -63 -55 -2 0 -4 47 -4 105 0 99 -1 105
-20 105 -20 0 -20 -5 -18 -182z"/>
<path d="M1027 453 c-13 -12 -7 -41 10 -47 21 -8 48 17 40 38 -6 16 -38 22
-50 9z"/>
<path d="M1787 434 c-4 -4 -7 -24 -7 -45 0 -28 -5 -38 -20 -42 -11 -3 -20 -10
-20 -17 0 -7 9 -14 20 -17 17 -5 20 -14 20 -72 0 -47 5 -75 19 -97 23 -37 67
-52 89 -31 17 18 8 37 -17 37 -31 0 -41 22 -41 91 0 66 1 68 28 71 36 4 36 32
0 36 -24 3 -27 8 -30 45 -3 40 -22 59 -41 41z"/>
<path d="M1032 233 c3 -106 6 -128 18 -128 12 0 15 22 18 128 2 122 2 127 -18
127 -20 0 -20 -5 -18 -127z"/>
<path d="M1215 351 c-38 -16 -58 -50 -63 -105 -5 -67 16 -112 63 -132 50 -21
70 -18 109 16 l34 30 -9 -42 c-16 -74 -78 -101 -132 -58 -49 39 -80 15 -34
-28 27 -25 77 -40 77 -22 0 10 3 10 14 1 21 -18 81 11 100 48 22 42 22 217 0
249 -31 44 -106 64 -159 43z m110 -56 c52 -51 16 -148 -55 -148 -71 0 -107 97
-55 148 15 16 36 25 55 25 19 0 40 -9 55 -25z"/>
<path d="M1467 353 c-4 -3 -7 -57 -7 -118 0 -86 3 -115 15 -125 26 -22 35 0
35 86 0 71 3 87 20 104 27 27 71 26 98 -3 19 -20 22 -35 22 -105 0 -82 9 -103
35 -82 10 9 15 32 15 74 0 81 -15 131 -47 156 -31 24 -89 27 -120 5 -19 -13
-22 -13 -27 0 -6 15 -28 20 -39 8z"/>
<path d="M1954 345 c-3 -8 -4 -53 -3 -99 4 -73 7 -88 28 -110 32 -34 81 -43
122 -22 29 15 33 15 44 -1 26 -35 35 -3 35 123 0 115 -1 124 -19 124 -25 0
-29 -13 -28 -101 0 -42 -3 -81 -7 -88 -14 -22 -53 -31 -85 -20 -37 13 -53 56
-51 131 1 29 1 59 1 66 -1 17 -30 15 -37 -3z"/>
<path d="M2295 348 c-27 -15 -35 -28 -35 -59 0 -34 24 -55 82 -69 64 -16 80
-36 49 -61 -29 -24 -38 -24 -85 1 -42 21 -56 19 -56 -10 0 -25 77 -55 123 -46
42 8 77 40 77 70 0 37 -31 66 -84 79 -55 14 -81 41 -56 57 23 15 59 12 91 -7
26 -16 31 -16 39 -3 7 11 3 21 -16 38 -28 24 -94 30 -129 10z"/>
<path d="M2689 263 c-13 -16 -12 -17 4 -4 16 13 21 21 13 21 -2 0 -10 -8 -17
-17z"/>
<path d="M300 251 c0 -6 4 -13 10 -16 6 -3 7 1 4 9 -7 18 -14 21 -14 7z"/>
<path d="M2686 208 c3 -5 10 -6 15 -3 13 9 11 12 -6 12 -8 0 -12 -4 -9 -9z"/>
</g>
</svg>
